<?xml version="1.0" standalone="no"?>
<!DOCTYPE svg PUBLIC "-//W3C//DTD SVG 20010904//EN"
 "http://www.w3.org/TR/2001/REC-SVG-20010904/DTD/svg10.dtd">
<svg version="1.0" xmlns="http://www.w3.org/2000/svg"
 width="1024.000000pt" height="1024.000000pt" viewBox="0 0 1024.000000 1024.000000"
 preserveAspectRatio="xMidYMid meet">
<metadata>
Created by potrace 1.14, written by Peter Selinger 2001-2017
</metadata>
<g transform="translate(0.000000,1024.000000) scale(0.100000,-0.100000)"
fill="#000000" stroke="none">
<path d="M3913 9223 c-267 -266 -388 -392 -498 -518 -38 -44 -76 -87 -85 -96
-8 -9 -40 -44 -70 -79 -30 -34 -60 -68 -67 -75 -6 -7 -48 -58 -92 -113 -81
-102 -108 -135 -126 -156 -122 -138 -503 -671 -684 -956 -80 -125 -212 -341
-235 -385 -15 -27 -38 -68 -52 -90 -13 -22 -44 -78 -68 -125 -25 -47 -61 -114
-80 -150 -20 -36 -40 -74 -45 -85 -5 -11 -39 -82 -75 -158 -36 -75 -66 -139
-66 -142 0 -2 -12 -30 -26 -62 -38 -84 -42 -93 -62 -148 -10 -27 -22 -59 -27
-70 -4 -11 -9 -24 -11 -30 -2 -5 -28 -82 -58 -170 -30 -88 -57 -171 -60 -185
-3 -14 -14 -59 -25 -100 -10 -41 -22 -91 -25 -110 -3 -19 -10 -50 -15 -68 -5
-18 -10 -36 -10 -40 -1 -8 -10 -81 -17 -127 -14 -101 -18 -193 -18 -370 1
-208 4 -260 29 -455 3 -19 7 -53 9 -75 10 -82 45 -272 61 -335 9 -36 18 -72
20 -80 17 -87 99 -343 156 -487 41 -102 161 -351 230 -474 23 -41 132 -213
138 -219 4 -3 28 -39 56 -80 27 -41 54 -80 60 -86 5 -6 24 -28 40 -49 17 -21
40 -49 53 -63 12 -14 22 -28 22 -31 0 -3 17 -25 38 -47 20 -23 64 -72 97 -109
94 -106 244 -252 369 -360 39 -33 77 -67 86 -75 53 -50 436 -320 454 -320 2 0
38 -20 79 -44 98 -58 288 -150 402 -193 173 -67 210 -80 255 -93 25 -7 65 -20
90 -28 25 -8 61 -18 80 -22 19 -4 78 -18 130 -30 115 -26 184 -39 245 -45 6
-1 28 -4 50 -8 22 -4 60 -9 85 -11 25 -3 79 -9 120 -13 97 -10 602 -10 700 0
41 4 98 10 125 13 44 5 298 47 350 58 126 27 192 45 315 83 80 25 150 49 155
53 6 4 35 15 65 25 50 17 95 36 260 112 156 72 531 303 590 363 3 3 32 25 65
50 33 24 69 53 81 65 12 11 45 40 75 65 155 128 376 356 519 535 39 50 79 99
88 110 87 104 362 553 362 591 0 7 3 14 8 16 10 4 85 167 128 278 60 156 131
380 149 470 2 8 12 51 23 95 11 44 23 103 27 130 3 28 8 57 10 65 2 8 6 31 9
50 3 19 7 44 10 55 2 11 7 52 11 90 4 39 8 81 10 95 19 136 27 463 14 593 -16
166 -44 318 -90 490 -16 61 -32 119 -34 127 -28 112 -175 496 -271 706 -73
161 -206 434 -244 499 -38 67 -94 170 -95 175 0 4 -95 167 -140 242 -5 9 -25
43 -44 75 -56 94 -227 349 -315 468 -44 61 -84 115 -88 120 -35 47 -264 328
-303 371 -198 219 -459 484 -475 484 -10 0 -408 -395 -540 -535 -85 -90 -196
-212 -251 -276 -11 -13 -44 -50 -72 -83 -29 -32 -64 -73 -79 -90 -14 -17 -28
-29 -30 -26 -3 3 -54 70 -113 150 -92 123 -134 177 -248 320 -170 213 -376
450 -652 749 -138 149 -655 661 -669 661 -2 0 -116 -111 -253 -247z m349
-2564 c34 -43 60 -76 120 -150 29 -37 67 -84 83 -105 110 -141 207 -262 222
-279 10 -11 38 -47 63 -80 24 -33 58 -76 75 -95 16 -20 41 -51 55 -70 14 -18
55 -70 91 -114 54 -67 568 -719 591 -751 4 -5 20 -26 36 -45 15 -19 68 -87
118 -150 49 -63 97 -124 106 -135 9 -11 24 -29 32 -40 14 -20 15 -20 34 5 11
14 30 36 42 50 12 14 43 49 68 79 26 30 52 59 57 65 6 6 35 40 65 75 30 36 66
76 80 91 14 15 36 40 49 56 25 30 128 150 146 170 36 40 81 92 160 184 50 58
95 110 101 115 6 6 37 41 70 80 32 38 64 75 71 82 6 7 21 25 32 39 12 15 25
24 29 20 8 -8 46 -75 87 -151 15 -27 33 -57 39 -65 21 -27 83 -133 120 -207
68 -136 138 -351 166 -508 5 -33 12 -70 14 -82 17 -87 23 -299 12 -428 -12
-130 -13 -140 -26 -211 -66 -357 -193 -661 -369 -884 -101 -128 -255 -289
-300 -314 -9 -5 -18 -12 -21 -15 -31 -39 -219 -165 -340 -229 -47 -24 -89 -47
-95 -50 -5 -4 -50 -23 -100 -43 -298 -120 -566 -168 -909 -163 -111 1 -214 4
-231 7 -16 3 -59 8 -95 12 -56 6 -265 46 -310 60 -8 2 -40 11 -70 19 -248 67
-577 246 -778 424 -92 81 -189 178 -242 242 -25 30 -51 61 -58 69 -16 16 -112
157 -128 187 -6 11 -27 50 -46 85 -100 182 -192 480 -213 694 -4 39 -9 79 -11
90 -7 33 -7 358 0 390 3 17 8 51 10 76 3 26 12 76 22 110 9 35 17 69 18 74 22
113 161 420 269 596 62 100 213 322 268 394 49 63 45 58 104 138 45 61 312
403 353 452 9 11 35 43 57 70 21 28 42 52 45 55 3 3 23 27 45 53 l39 49 27
-32 c16 -17 38 -45 51 -61z"/>
</g>
</svg>
