<svg xmlns="http://www.w3.org/2000/svg" width="400" height="400"><path d="M150.2 42.291c-6.663 6.718-14.575 15.023-17.583 18.456-3.008 3.434-5.732 6.514-6.054 6.845-.651.668-5.565 6.532-7.056 8.419-.742.939-5.576 6.964-7.495 9.341-.523.648-3.559 4.671-4.395 5.823-.655.903-2.245 3.015-4.609 6.121-.258.34-.645.888-.86 1.218-.214.331-1.105 1.635-1.979 2.899-3.039 4.394-9.433 14.037-11.496 17.337a606.47 606.47 0 0 1-3.773 5.952c-.933 1.448-1.697 2.81-1.697 3.028 0 .217-.137.395-.305.395-.168 0-.515.483-.772 1.074-.258.591-.914 1.778-1.46 2.637-.546.859-1.162 1.914-1.369 2.344-.208.429-.816 1.484-1.353 2.343-1.139 1.825-1.872 3.221-7.134 13.587-4.145 8.166-10.231 21.921-10.926 24.695-.054.215-.814 2.412-1.69 4.883-2.125 5.994-5.088 17.821-5.726 22.851a506.84 506.84 0 0 1-.721 5.274c-.496 3.52-.528 20.547-.043 23.632.101.645.288 2.139.416 3.321.355 3.288 1.012 8.203 1.2 8.984.026.107.182 1.162.345 2.344.305 2.197 1.115 6.025 1.851 8.754.227.841.469 1.807.537 2.149 2.099 10.458 9.35 27.969 16.298 39.364.5.82 1.153 1.971 1.451 2.558.298.587.827 1.378 1.175 1.758.349.38 1.058 1.393 1.577 2.253.519.859 1.059 1.65 1.199 1.758.14.107.748.986 1.351 1.953 1.151 1.847 3.164 4.474 4.937 6.445.58.644 2.357 2.754 3.949 4.687 5.216 6.335 16.547 17.24 22.875 22.013 1.007.76 1.918 1.493 2.026 1.63.299.38 9.023 6.424 10.351 7.171a94.49 94.49 0 0 1 3.125 1.885c32.402 20.349 80.839 25.335 120.117 12.365 9.701-3.203 20.108-7.943 27.149-12.365a94.49 94.49 0 0 1 3.125-1.885c1.328-.747 10.052-6.791 10.351-7.171.108-.137 1.019-.87 2.026-1.63 6.328-4.773 17.659-15.678 22.875-22.013 1.592-1.933 3.369-4.043 3.949-4.687 1.773-1.971 3.786-4.598 4.937-6.445.603-.967 1.211-1.846 1.351-1.953.14-.108.68-.899 1.199-1.758.519-.86 1.228-1.873 1.577-2.253.348-.38.877-1.171 1.175-1.758.298-.587.951-1.738 1.451-2.558 6.948-11.395 14.199-28.906 16.298-39.364.068-.342.316-1.352.55-2.246 1.002-3.832 1.191-4.696 1.596-7.29.712-4.564.789-5.042.978-6.055.1-.537.275-1.855.39-2.929.114-1.075.288-2.569.386-3.321 1.365-10.449 1.028-25.174-.791-34.57-2.184-11.28-7.17-26.479-12.332-37.589-.622-1.339-1.13-2.536-1.13-2.662 0-.474-9.369-19.551-11.214-22.835a374.677 374.677 0 0 1-2.649-4.883c-1.034-1.933-3.524-6.195-5.532-9.47-2.009-3.275-3.652-6.043-3.652-6.151 0-.108-.879-1.428-1.953-2.933-1.074-1.506-1.953-2.886-1.953-3.066 0-.181-.352-.647-.782-1.036-.429-.389-.781-.847-.781-1.019 0-.171-1.243-2.033-2.761-4.138-9.636-13.354-17.561-22.708-29.366-34.659l-6.54-6.622-10.061 10.14c-11.013 11.1-14.248 14.492-18.043 18.915-1.382 1.611-3.201 3.633-4.043 4.492-.841.86-2.43 2.672-3.532 4.028l-2.002 2.466-1.098-1.294c-.604-.711-1.79-2.26-2.636-3.442-2.598-3.63-7.87-10.441-10.674-13.791a94.193 94.193 0 0 1-1.758-2.199c-1.314-1.694-7.804-9.386-8.627-10.224-.339-.346-1.408-1.572-2.374-2.726-7.582-9.044-37.538-39.81-38.762-39.81-.268 0-5.939 5.496-12.601 12.213m15.62 97.012c.645.834 1.498 1.868 1.896 2.298.397.43 1.183 1.397 1.745 2.149a101.16 101.16 0 0 0 3.928 4.883c.373.43 1.195 1.484 1.826 2.344.631.859 1.242 1.65 1.356 1.757.115.108 2.046 2.569 4.29 5.469 2.245 2.901 5.404 6.876 7.02 8.835 1.617 1.959 3.642 4.494 4.502 5.633a86.648 86.648 0 0 0 2.937 3.665c.756.877 2.243 2.736 3.305 4.133 1.062 1.396 2.026 2.627 2.142 2.734.116.108 1.002 1.25 1.967 2.539.966 1.289 1.845 2.432 1.953 2.539.107.108 1.07 1.338 2.139 2.735 1.069 1.396 2.431 3.066 3.026 3.711.595.644 1.083 1.291 1.084 1.437.001.145.241.504.533.796.292.292 1.726 2.107 3.186 4.032 4.173 5.503 6.473 8.436 8.104 10.336.83.967 1.652 1.947 1.827 2.179.176.232 1.278 1.662 2.45 3.178l2.13 2.757 1.317-1.547a153.65 153.65 0 0 1 2.117-2.436c.439-.488 1.234-1.397 1.767-2.021 2.543-2.976 11.149-12.901 11.512-13.276.225-.233 1.201-1.36 2.168-2.506.967-1.145 1.94-2.273 2.164-2.506.223-.233 2.234-2.533 4.468-5.111s4.248-4.885 4.476-5.126c.229-.242 1.11-1.265 1.959-2.274.849-1.01 1.904-2.233 2.344-2.719.44-.485 1.581-1.8 2.536-2.921l1.737-2.037.923 1.484c.508.816 1.079 1.865 1.269 2.331.19.466 1.661 2.948 3.268 5.516 2.494 3.986 6.097 10.584 6.12 11.209.009.236.288 1.141.636 2.057.142.376.277.771.299.879.022.107.159.383.306.613.472.739 2.949 10.038 3.427 12.863.924 5.457.981 6.387.912 14.844-.066 8.157-.917 14.759-2.618 20.312a52.36 52.36 0 0 0-.42 1.563c-.536 2.096-2.569 8.168-3.203 9.57-5.503 12.166-12.276 21.31-20.993 28.34-1.052.849-2.107 1.722-2.344 1.942-2.226 2.061-17.032 10.894-17.032 10.16 0-.12-1.053.313-2.341.963-1.288.65-2.475 1.203-2.637 1.227a6.02 6.02 0 0 0-.686.165c-5.475 1.674-8.393 2.517-9.179 2.653-.538.092-1.68.353-2.54.578-3.864 1.013-11.27 1.714-18.359 1.739-6.698.023-8.845-.085-14.648-.735-2.304-.258-7.407-1.237-10.352-1.985-1.289-.327-2.761-.673-3.27-.767-9.994-1.853-25.649-11.016-35.912-21.02-3.69-3.597-9.35-10.344-10.666-12.713a17.577 17.577 0 0 0-.976-1.562c-1.499-2.029-5.895-11.263-6.973-14.649-1.364-4.281-2.17-7.18-2.389-8.594-.134-.859-.305-1.663-.381-1.787-.778-1.271-1.488-9.385-1.502-17.158-.015-8.43.15-10.237 1.492-16.376.426-1.95 2.652-8.878 3.335-10.382 2.588-5.697 5.15-10.571 7.803-14.843 2.7-4.348 6.378-9.754 6.732-9.896.178-.072.324-.299.324-.505 0-.206.179-.587.398-.847.219-.259.878-1.208 1.465-2.109.587-.9 2.42-3.361 4.073-5.469 1.653-2.107 3.845-4.973 4.87-6.37 1.026-1.396 1.962-2.627 2.08-2.734.119-.108 2.232-2.744 4.696-5.86 2.465-3.115 4.659-5.86 4.876-6.1.216-.239 1.624-1.95 3.128-3.801 3.056-3.761 2.519-3.719 5.078-.405" fill="#fcfc84" fill-rule="evenodd"/></svg>